<?xml version="1.0" encoding="iso-8859-1"?>
<!-- Generator: Adobe Illustrator 18.0.0, SVG Export Plug-In . SVG Version: 6.00 Build 0)  -->
<!DOCTYPE svg PUBLIC "-//W3C//DTD SVG 1.1//EN" "http://www.w3.org/Graphics/SVG/1.1/DTD/svg11.dtd">
<svg xmlns="http://www.w3.org/2000/svg" xmlns:xlink="http://www.w3.org/1999/xlink" version="1.1" id="Capa_1" x="0px" y="0px" viewBox="0 0 491.6 491.6" style="enable-background:new 0 0 491.6 491.6;" xml:space="preserve" width="512px" height="512px">
<path id="XMLID_378_" d="M433.258,59.107H58.342C26.173,59.107,0,84.248,0,115.145v261.312c0,30.904,26.173,56.037,58.342,56.037  h374.916c32.168,0,58.342-25.133,58.342-56.037V115.145C491.6,84.248,465.426,59.107,433.258,59.107z M331.861,139.998  c0-10.975,8.894-19.866,19.867-19.866h57.262c10.974,0,19.866,8.891,19.866,19.866v79.113c0,10.974-8.893,19.866-19.866,19.866  h-57.262c-10.974,0-19.867-8.893-19.867-19.866V139.998z M174.771,297.143c0-9.052,7.339-16.392,16.393-16.392h31.417  c9.052,0,16.393,7.34,16.393,16.392c0,9.053-7.34,16.393-16.393,16.393h-31.417C182.11,313.536,174.771,306.197,174.771,297.143z   M342.795,376.377H217.113c-9.052,0-16.392-7.341-16.392-16.392c0-9.052,7.34-16.393,16.392-16.393h125.682  c9.052,0,16.393,7.341,16.393,16.393C359.188,369.036,351.847,376.377,342.795,376.377z M423.389,313.536H279.954  c-9.052,0-16.392-7.339-16.392-16.393c0-9.052,7.34-16.392,16.392-16.392h143.435c9.052,0,16.393,7.34,16.393,16.392  C439.782,306.197,432.441,313.536,423.389,313.536z" fill="#FFFFFF"/>
<g>
</g>
<g>
</g>
<g>
</g>
<g>
</g>
<g>
</g>
<g>
</g>
<g>
</g>
<g>
</g>
<g>
</g>
<g>
</g>
<g>
</g>
<g>
</g>
<g>
</g>
<g>
</g>
<g>
</g>
</svg>
